<?xml version="1.0" encoding="UTF-8"?>
<svg width="34px" height="34px" viewBox="0 0 34 34" version="1.1" xmlns="http://www.w3.org/2000/svg" xmlns:xlink="http://www.w3.org/1999/xlink">
    <title>编组备份 8</title>
    <defs>
        <filter x="-27.1%" y="-27.1%" width="154.2%" height="154.2%" filterUnits="objectBoundingBox" id="filter-1">
            <feOffset dx="0" dy="1" in="SourceAlpha" result="shadowOffsetOuter1"></feOffset>
            <feGaussianBlur stdDeviation="1" in="shadowOffsetOuter1" result="shadowBlurOuter1"></feGaussianBlur>
            <feColorMatrix values="0 0 0 0 0.443137255   0 0 0 0 0.870588235   0 0 0 0 0.698039216  0 0 0 1 0" type="matrix" in="shadowBlurOuter1" result="shadowMatrixOuter1"></feColorMatrix>
            <feMerge>
                <feMergeNode in="shadowMatrixOuter1"></feMergeNode>
                <feMergeNode in="SourceGraphic"></feMergeNode>
            </feMerge>
        </filter>
    </defs>
    <g id="页面" stroke="none" stroke-width="1" fill="none" fill-rule="evenodd">
        <g id="数据中心版-概览-管理员" transform="translate(-1013.000000, -864.000000)" fill="#219E74" fill-rule="nonzero">
            <g id="编组-43备份" transform="translate(958.000000, 815.000000)">
                <g id="编组-22" transform="translate(22.000000, 39.000000)">
                    <g id="编组备份-8" filter="url(#filter-1)" transform="translate(38.000000, 15.000000)">
                        <path d="M0,14.4 L0,20.8 L5.53600001,24 L11.072,20.8 L11.072,14.4 L5.53600001,11.2 L0,14.4 Z M9.48799999,19.872 L5.53600001,22.16 L1.60000001,19.872 L1.60000001,15.328 L5.53600001,13.04 L9.48799999,15.328 L9.48799999,19.872 Z M17.6,3.19999999 L12,0 L6.40000001,3.19999999 L6.40000001,9.6 L12,12.8 L17.6,9.6 L17.6,3.19999999 Z M16,8.67199999 L12,10.96 L7.99999999,8.67199999 L7.99999999,4.128 L12,1.84000001 L16,4.128 L16,8.67199999 Z" id="形状"></path>
                        <path d="M9.6,5.00800001 L9.6,7.79200001 L12,9.168 L14.4,7.79200001 L14.4,5.00800001 L12,3.63199999 L9.6,5.00800001 Z M3.19999999,18.992 L5.59999999,20.368 L7.99999999,18.992 L7.99999999,16.208 L5.59999999,14.832 L3.19999999,16.208 L3.19999999,18.992 Z M16,16.208 L16,18.992 L18.4,20.368 L20.8,18.992 L20.8,16.208 L18.4,14.832 L16,16.208 Z" id="形状"></path>
                        <path d="M18.464,11.2 L12.912,14.4 L12.912,20.8 L18.448,24 L24,20.8 L24,14.4 L18.464,11.2 Z M22.4,19.872 L18.464,22.144 L14.512,19.872 L14.512,15.328 L18.448,13.056 L22.4,15.328 L22.4,19.872 Z" id="形状"></path>
                    </g>
                </g>
            </g>
        </g>
    </g>
</svg>