<?xml version="1.0" encoding="UTF-8"?>
<svg width="41px" height="37px" viewBox="0 0 41 37" version="1.1" xmlns="http://www.w3.org/2000/svg" xmlns:xlink="http://www.w3.org/1999/xlink">
    <title>编组备份 10</title>
    <defs>
        <filter x="-21.0%" y="-24.1%" width="141.9%" height="148.1%" filterUnits="objectBoundingBox" id="filter-1">
            <feOffset dx="0" dy="1" in="SourceAlpha" result="shadowOffsetOuter1"></feOffset>
            <feGaussianBlur stdDeviation="1" in="shadowOffsetOuter1" result="shadowBlurOuter1"></feGaussianBlur>
            <feColorMatrix values="0 0 0 0 0.666666667   0 0 0 0 0.831372549   0 0 0 0 1  0 0 0 1 0" type="matrix" in="shadowBlurOuter1" result="shadowMatrixOuter1"></feColorMatrix>
            <feMerge>
                <feMergeNode in="shadowMatrixOuter1"></feMergeNode>
                <feMergeNode in="SourceGraphic"></feMergeNode>
            </feMerge>
        </filter>
    </defs>
    <g id="页面" stroke="none" stroke-width="1" fill="none" fill-rule="evenodd">
        <g id="数据中心版-概览-管理员" transform="translate(-1118.000000, -862.000000)" fill-rule="nonzero">
            <g id="编组-43备份" transform="translate(958.000000, 815.000000)">
                <g id="编组-23" transform="translate(131.000000, 39.000000)">
                    <g id="编组备份-10" filter="url(#filter-1)" transform="translate(34.000000, 13.000000)">
                        <path d="M14.2917565,2.74539632 L6.35917608,2.74539632 C5.26653414,2.74539632 4.39242059,3.63170536 4.39242059,4.71257006 L4.39242059,20.3851081 C4.39242059,21.4659728 5.26653414,22.3522818 6.35917608,22.3522818 L18.2689732,22.3522818 C19.3616151,22.3522818 20.2575815,21.4659728 20.2575815,20.3851081 L20.2575815,8.62530024 L14.2917565,2.74539632 Z M16.258512,18.4179343 L8.3477844,18.4179343 L8.3477844,16.4507606 L16.258512,16.4507606 L16.258512,18.4179343 Z M16.258512,14.5052042 L8.3477844,14.5052042 L8.3477844,12.5380304 L16.258512,12.5380304 L16.258512,14.5052042 Z M13.286526,9.59807846 L13.286526,4.2153723 L18.7278828,9.59807846 L13.286526,9.59807846 Z" id="形状" fill="#AAD4FF"></path>
                        <path d="M18.2471204,5.18815052 L10.3145399,5.18815052 C9.22189795,5.18815052 8.3477844,6.07445957 8.3477844,7.15532426 L8.3477844,22.8278623 C8.3477844,23.908727 9.22189795,24.795036 10.3145399,24.795036 L22.224337,24.795036 C23.316979,24.795036 24.2129453,23.908727 24.2129453,22.8278623 L24.2129453,11.0680544 L18.2471204,5.18815052 L18.2471204,5.18815052 Z M20.2357287,20.8606886 L12.3031482,20.8606886 L12.3031482,18.9151321 L20.2357287,18.9151321 L20.2357287,20.8606886 Z M20.2357287,16.9479584 L12.3031482,16.9479584 L12.3031482,14.9807846 L20.2357287,14.9807846 L20.2357287,16.9479584 Z M17.2637426,12.0408327 L17.2637426,6.6581265 L22.7050995,12.0408327 L17.2637426,12.0408327 L17.2637426,12.0408327 Z" id="形状" fill="#2B95FF"></path>
                        <path d="M27.9934864,1.7510008 L26.7478746,1.7510008 L26.7478746,0.497197758 C26.7478746,0.216172938 26.5293462,0 26.2452593,0 C25.9611724,0 25.7426441,0.216172938 25.7426441,0.497197758 L25.7426441,1.7510008 L24.4751794,1.7510008 C24.1910925,1.7510008 23.9725641,1.96717374 23.9725641,2.24819856 C23.9725641,2.52922338 24.1910925,2.74539632 24.4751794,2.74539632 L25.7426441,2.74539632 L25.7426441,3.99919936 C25.7426441,4.28022418 25.9611724,4.49639712 26.2452593,4.49639712 C26.5293462,4.49639712 26.7478746,4.28022418 26.7478746,3.99919936 L26.7478746,2.74539632 L28.0153393,2.74539632 C28.2994262,2.74539632 28.5179546,2.52922338 28.5179546,2.24819856 C28.5179546,1.96717374 28.2775733,1.7510008 27.9934864,1.7510008 L27.9934864,1.7510008 Z" id="路径" fill="#A8D4FF"></path>
                        <path d="M27.0441991,18.0893515 L29.021881,16.1329864 L31,18.0893515 L29.0220996,20.0457166 L27.0441991,18.0893515 Z M26.2452593,27 L27.7312524,25.530024 L24.7592663,25.530024 L26.2452593,27 Z" id="形状" fill="#D9EDFF"></path>
                        <path d="M0.480762453,1.79423539 C0.480762453,2.5583251 1.1069288,3.17774219 1.87934413,3.17774219 C2.65175947,3.17774219 3.27792581,2.5583251 3.27792581,1.79423539 C3.27792581,1.03014568 2.65175947,0.410728583 1.87934413,0.410728583 C1.1069288,0.410728583 0.480762453,1.03014568 0.480762453,1.79423539 Z" id="路径" fill="#D9EDFF"></path>
                        <path d="M4.65465465,25.4219376 L0.852260711,21.6605284 C0.721143679,21.5308247 0.502615291,21.4875901 0.305939743,21.552442 C0.131117033,21.6389111 0,21.8118495 0,22.0064051 L0,25.7678143 C0,25.897518 0.0655585163,26.0272218 0.152969871,26.113691 C0.240381226,26.2001601 0.371498259,26.265012 0.502615291,26.265012 L4.30500923,26.265012 C4.50168478,26.265012 4.67650749,26.1353082 4.76391885,25.9623699 C4.82947736,25.7894315 4.78577169,25.5732586 4.65465465,25.4219376 Z M0.983377744,25.2922338 L0.983377744,23.2169736 L3.08125026,25.2922338 L0.983377744,25.2922338 Z" id="形状" fill="#A8D4FF"></path>
                    </g>
                </g>
            </g>
        </g>
    </g>
</svg>