<?xml version="1.0" encoding="UTF-8"?>
<svg width="32px" height="32px" viewBox="0 0 32 32" version="1.1" xmlns="http://www.w3.org/2000/svg" xmlns:xlink="http://www.w3.org/1999/xlink">
    <title>编组备份 11</title>
    <defs>
        <path d="M4,0 L20,0 C22.209139,0 24,1.790861 24,4 L24,16 C24,17.0608659 23.5785726,18.0782816 22.8284271,18.8284271 C22.0782816,19.5785726 21.060866,20 20,20 L4,20 C2.93913403,20 1.92171838,19.5785726 1.17157286,18.8284271 C0.42142735,18.0782816 0,17.0608659 0,16 L0,4 C0,1.790861 1.790861,0 4,0 Z M6.00000001,22 L18,22 C18.357305,21.9999409 18.6874937,22.1905269 18.8661632,22.4999523 C19.0448327,22.8093776 19.0448327,23.1906224 18.8661632,23.5000477 C18.6874937,23.8094731 18.357305,24.0000591 18,24 L6.00000001,24 C5.64269504,24.0000591 5.31250635,23.8094731 5.1338368,23.5000477 C4.95516726,23.1906224 4.95516726,22.8093776 5.1338368,22.4999523 C5.31250635,22.1905269 5.64269504,21.9999409 6.00000001,22 L6.00000001,22 Z M14,5 C13.4477798,5.00009132 13.0001653,5.44777982 13.0001653,6 C13.0001653,6.55222018 13.4477798,6.99990868 14,7 L20,7 C20.5522202,6.99990868 20.9998347,6.55222018 20.9998347,6 C20.9998347,5.44777982 20.5522202,5.00009132 20,5 L14,5 L14,5 Z M14,8.99999998 C13.642695,8.99994091 13.3125063,9.19052691 13.1338368,9.49995225 C12.9551672,9.80937759 12.9551672,10.1906224 13.1338368,10.5000477 C13.3125063,10.8094731 13.642695,11.0000591 14,11 L20,11 C20.357305,11.0000591 20.6874937,10.8094731 20.8661632,10.5000477 C21.0448328,10.1906224 21.0448328,9.80937759 20.8661632,9.49995225 C20.6874937,9.19052691 20.357305,8.99994091 20,8.99999998 L14,8.99999998 L14,8.99999998 Z M16,13 C15.642695,12.9999409 15.3125063,13.1905269 15.1338368,13.4999523 C14.9551672,13.8093776 14.9551672,14.1906224 15.1338368,14.5000477 C15.3125063,14.8094731 15.642695,15.0000591 16,15 L20,15 C20.357305,15.0000591 20.6874937,14.8094731 20.8661632,14.5000477 C21.0448328,14.1906224 21.0448328,13.8093776 20.8661632,13.4999523 C20.6874937,13.1905269 20.357305,12.9999409 20,13 L16,13 L16,13 Z M7.44796494,9.99945612 C8.35333877,10.0183047 9.19812276,9.54607635 9.65633833,8.76499094 C10.1145539,7.98390553 10.1145539,7.01609447 9.65633833,6.23500906 C9.19812276,5.45392365 8.35333877,4.98169534 7.44796494,5.00054388 C6.08782668,5.02885994 5,6.13956827 5,7.5 C5,8.86043173 6.08782668,9.97114006 7.44796494,9.99945612 L7.44796494,9.99945612 Z M9.0955476,10 C8.61755382,10.3029996 8.06414636,10.4631797 7.49951252,10.4619619 C6.93521002,10.4629939 6.38216573,10.302821 5.9044524,10 C4.15600004,10.668857 2.99986658,12.357874 3,14.2431689 C3,14.6609003 3.3353916,15 3.75073123,15 L11.2502437,15 C11.6644803,14.9994577 12,14.6607716 12,14.2431689 C12,12.357626 10.8434087,10.6685367 9.09457264,10 L9.0955476,10 Z" id="path-1"></path>
        <filter x="-29.2%" y="-20.8%" width="158.3%" height="158.3%" filterUnits="objectBoundingBox" id="filter-2">
            <feOffset dx="0" dy="2" in="SourceAlpha" result="shadowOffsetOuter1"></feOffset>
            <feGaussianBlur stdDeviation="2" in="shadowOffsetOuter1" result="shadowBlurOuter1"></feGaussianBlur>
            <feColorMatrix values="0 0 0 0 1   0 0 0 0 0.666666667   0 0 0 0 0.341176471  0 0 0 1 0" type="matrix" in="shadowBlurOuter1"></feColorMatrix>
        </filter>
    </defs>
    <g id="页面" stroke="none" stroke-width="1" fill="none" fill-rule="evenodd">
        <g id="数据中心版-概览-管理员" transform="translate(-1232.000000, -868.000000)" fill-rule="nonzero">
            <g id="编组-43备份" transform="translate(958.000000, 815.000000)">
                <g id="编组-24" transform="translate(240.000000, 39.000000)">
                    <g id="形状" transform="translate(38.000000, 16.000000)">
                        <use fill="black" fill-opacity="1" filter="url(#filter-2)" xlink:href="#path-1"></use>
                        <use fill="#FFAA57" xlink:href="#path-1"></use>
                    </g>
                </g>
            </g>
        </g>
    </g>
</svg>